<?xml version="1.0" encoding="UTF-8"?>
<svg version="1.1" xmlns="http://www.w3.org/2000/svg" width="1000" height="1000">
<path d="M0 0 C2.76827222 1.41238379 5.34530092 2.86418285 7.87890625 4.66015625 C7.87890625 5.32015625 7.87890625 5.98015625 7.87890625 6.66015625 C8.49765625 6.96953125 9.11640625 7.27890625 9.75390625 7.59765625 C11.12890625 8.28515625 12.50390625 8.97265625 13.87890625 9.66015625 C13.87890625 10.32015625 13.87890625 10.98015625 13.87890625 11.66015625 C14.53890625 11.66015625 15.19890625 11.66015625 15.87890625 11.66015625 C15.87890625 12.65015625 15.87890625 13.64015625 15.87890625 14.66015625 C16.53890625 14.66015625 17.19890625 14.66015625 17.87890625 14.66015625 C20.87890625 19.04477163 20.87890625 19.04477163 20.87890625 21.66015625 C21.53890625 21.66015625 22.19890625 21.66015625 22.87890625 21.66015625 C22.87890625 22.98015625 22.87890625 24.30015625 22.87890625 25.66015625 C23.53890625 25.66015625 24.19890625 25.66015625 24.87890625 25.66015625 C28.30747768 34.08872768 28.30747768 34.08872768 27.87890625 38.66015625 C28.53890625 38.66015625 29.19890625 38.66015625 29.87890625 38.66015625 C29.87890625 40.97015625 29.87890625 43.28015625 29.87890625 45.66015625 C30.53890625 45.66015625 31.19890625 45.66015625 31.87890625 45.66015625 C31.93425537 46.28583496 31.98960449 46.91151367 32.04663086 47.55615234 C32.29904524 50.38287822 32.55764818 53.20900432 32.81640625 56.03515625 C32.90341797 57.02 32.99042969 58.00484375 33.08007812 59.01953125 C33.16708984 59.96054688 33.25410156 60.9015625 33.34375 61.87109375 C33.46157837 63.17506104 33.46157837 63.17506104 33.58178711 64.50537109 C33.76768459 66.70508541 33.76768459 66.70508541 34.87890625 68.66015625 C34.97263713 70.56070391 35.00081542 72.46460532 34.99916077 74.36746216 C35.00122276 76.18904343 35.00122276 76.18904343 35.00332642 78.04742432 C34.99978705 79.4002688 34.99615224 80.75311303 34.99243164 82.10595703 C34.99214969 83.52495319 34.99230766 84.94394949 34.99287415 86.36294556 C34.9931618 90.22222088 34.98727016 94.08146531 34.98030019 97.94073343 C34.97406141 101.97130077 34.97346243 106.00186877 34.97227478 110.03244019 C34.96916302 117.66806298 34.96095171 125.30367151 34.95092529 132.93928802 C34.93975936 141.63082366 34.93425249 150.32235997 34.92922986 159.013901 C34.91876897 176.89599418 34.90117251 194.77807407 34.87890625 212.66015625 C35.53890625 212.66015625 36.19890625 212.66015625 36.87890625 212.66015625 C36.87890625 218.27015625 36.87890625 223.88015625 36.87890625 229.66015625 C39.51890625 229.99015625 42.15890625 230.32015625 44.87890625 230.66015625 C44.87890625 231.32015625 44.87890625 231.98015625 44.87890625 232.66015625 C45.51828125 232.92828125 46.15765625 233.19640625 46.81640625 233.47265625 C48.87890625 234.66015625 48.87890625 234.66015625 49.87890625 237.66015625 C51.89398983 238.39339421 51.89398983 238.39339421 53.87890625 238.66015625 C54.20890625 239.98015625 54.53890625 241.30015625 54.87890625 242.66015625 C55.53890625 242.66015625 56.19890625 242.66015625 56.87890625 242.66015625 C56.87890625 243.32015625 56.87890625 243.98015625 56.87890625 244.66015625 C57.86890625 244.99015625 58.85890625 245.32015625 59.87890625 245.66015625 C59.87890625 246.32015625 59.87890625 246.98015625 59.87890625 247.66015625 C60.53890625 247.66015625 61.19890625 247.66015625 61.87890625 247.66015625 C61.87890625 248.32015625 61.87890625 248.98015625 61.87890625 249.66015625 C62.51828125 249.92828125 63.15765625 250.19640625 63.81640625 250.47265625 C65.87890625 251.66015625 65.87890625 251.66015625 66.87890625 254.66015625 C67.53890625 254.66015625 68.19890625 254.66015625 68.87890625 254.66015625 C69.53890625 256.31015625 70.19890625 257.96015625 70.87890625 259.66015625 C71.53890625 259.66015625 72.19890625 259.66015625 72.87890625 259.66015625 C76.41007711 263.08695753 79.52628345 266.96420165 82.19140625 271.09765625 C83.62649025 273.74271336 83.62649025 273.74271336 85.87890625 274.66015625 C85.87890625 275.32015625 85.87890625 275.98015625 85.87890625 276.66015625 C86.53890625 276.66015625 87.19890625 276.66015625 87.87890625 276.66015625 C90.87890625 281.04477163 90.87890625 281.04477163 90.87890625 283.66015625 C91.53890625 283.66015625 92.19890625 283.66015625 92.87890625 283.66015625 C94.09765625 285.15625 94.09765625 285.15625 95.37890625 287.09765625 C97.16544255 289.88547472 97.16544255 289.88547472 99.87890625 291.66015625 C99.87890625 292.98015625 99.87890625 294.30015625 99.87890625 295.66015625 C100.53890625 295.66015625 101.19890625 295.66015625 101.87890625 295.66015625 C103.50390625 296.91015625 103.50390625 296.91015625 104.87890625 298.66015625 C104.87890625 299.98015625 104.87890625 301.30015625 104.87890625 302.66015625 C105.86890625 302.99015625 106.85890625 303.32015625 107.87890625 303.66015625 C109.94844243 306.50576849 111.7443586 309.42728532 113.50390625 312.47265625 C114.69207167 314.78309746 114.69207167 314.78309746 116.87890625 315.66015625 C116.87890625 316.98015625 116.87890625 318.30015625 116.87890625 319.66015625 C117.86890625 319.99015625 118.85890625 320.32015625 119.87890625 320.66015625 C121.703125 323.3125 121.703125 323.3125 123.56640625 326.59765625 C124.18902344 327.67917969 124.81164062 328.76070313 125.453125 329.875 C126.87890625 332.66015625 126.87890625 332.66015625 126.87890625 334.66015625 C127.53890625 334.66015625 128.19890625 334.66015625 128.87890625 334.66015625 C128.87890625 335.65015625 128.87890625 336.64015625 128.87890625 337.66015625 C129.53890625 337.66015625 130.19890625 337.66015625 130.87890625 337.66015625 C131.22953125 338.42328125 131.58015625 339.18640625 131.94140625 339.97265625 C134.07658876 344.29484609 136.80201662 348.2517024 139.453125 352.26953125 C140.87890625 354.66015625 140.87890625 354.66015625 140.87890625 356.66015625 C141.53890625 356.66015625 142.19890625 356.66015625 142.87890625 356.66015625 C144.11811927 359.63426749 145.17949029 362.51278443 145.87890625 365.66015625 C146.53890625 365.66015625 147.19890625 365.66015625 147.87890625 365.66015625 C149.9206011 368.56564507 150.87890625 370.06157671 150.87890625 373.66015625 C151.53890625 373.66015625 152.19890625 373.66015625 152.87890625 373.66015625 C152.87890625 374.32015625 152.87890625 374.98015625 152.87890625 375.66015625 C153.53890625 375.66015625 154.19890625 375.66015625 154.87890625 375.66015625 C155.00265625 376.29953125 155.12640625 376.93890625 155.25390625 377.59765625 C155.46015625 378.27828125 155.66640625 378.95890625 155.87890625 379.66015625 C156.53890625 379.99015625 157.19890625 380.32015625 157.87890625 380.66015625 C157.87890625 381.98015625 157.87890625 383.30015625 157.87890625 384.66015625 C158.53890625 384.66015625 159.19890625 384.66015625 159.87890625 384.66015625 C160.20890625 386.31015625 160.53890625 387.96015625 160.87890625 389.66015625 C161.53890625 389.66015625 162.19890625 389.66015625 162.87890625 389.66015625 C162.87890625 390.65015625 162.87890625 391.64015625 162.87890625 392.66015625 C163.53890625 392.66015625 164.19890625 392.66015625 164.87890625 392.66015625 C164.87890625 393.65015625 164.87890625 394.64015625 164.87890625 395.66015625 C165.53890625 395.66015625 166.19890625 395.66015625 166.87890625 395.66015625 C169.87890625 401.41015625 169.87890625 401.41015625 169.87890625 403.66015625 C170.53890625 403.66015625 171.19890625 403.66015625 171.87890625 403.66015625 C174.87890625 409.41015625 174.87890625 409.41015625 174.87890625 411.66015625 C175.53890625 411.66015625 176.19890625 411.66015625 176.87890625 411.66015625 C177.86890625 414.63015625 178.85890625 417.60015625 179.87890625 420.66015625 C180.53890625 420.66015625 181.19890625 420.66015625 181.87890625 420.66015625 C181.87890625 421.65015625 181.87890625 422.64015625 181.87890625 423.66015625 C182.53890625 423.66015625 183.19890625 423.66015625 183.87890625 423.66015625 C184.20890625 425.31015625 184.53890625 426.96015625 184.87890625 428.66015625 C185.53890625 428.66015625 186.19890625 428.66015625 186.87890625 428.66015625 C186.87890625 429.98015625 186.87890625 431.30015625 186.87890625 432.66015625 C187.86890625 432.99015625 188.85890625 433.32015625 189.87890625 433.66015625 C191.5271082 436.26258039 191.87890625 437.52264404 191.87890625 440.66015625 C192.53890625 440.66015625 193.19890625 440.66015625 193.87890625 440.66015625 C193.87890625 441.65015625 193.87890625 442.64015625 193.87890625 443.66015625 C220.95160038 444.41462978 248.01968723 444.90075035 275.10113525 445.19238281 C279.84348828 445.24406718 284.58580431 445.29895862 289.328125 445.35351562 C298.51168667 445.4587255 307.69528145 445.56061965 316.87890625 445.66015625 C316.87890625 446.32015625 316.87890625 446.98015625 316.87890625 447.66015625 C318.85890625 447.33015625 320.83890625 447.00015625 322.87890625 446.66015625 C321.66633245 450.38449007 320.37030646 454.03818431 318.87890625 457.66015625 C318.21890625 457.66015625 317.55890625 457.66015625 316.87890625 457.66015625 C316.87890625 458.98015625 316.87890625 460.30015625 316.87890625 461.66015625 C316.21890625 461.66015625 315.55890625 461.66015625 314.87890625 461.66015625 C314.54890625 463.64015625 314.21890625 465.62015625 313.87890625 467.66015625 C313.21890625 467.66015625 312.55890625 467.66015625 311.87890625 467.66015625 C311.87890625 468.98015625 311.87890625 470.30015625 311.87890625 471.66015625 C311.21890625 471.66015625 310.55890625 471.66015625 309.87890625 471.66015625 C309.87890625 472.65015625 309.87890625 473.64015625 309.87890625 474.66015625 C309.21890625 474.66015625 308.55890625 474.66015625 307.87890625 474.66015625 C308.20890625 475.65015625 308.53890625 476.64015625 308.87890625 477.66015625 C307.94140625 479.84765625 307.94140625 479.84765625 306.87890625 481.66015625 C306.21890625 481.66015625 305.55890625 481.66015625 304.87890625 481.66015625 C304.75515625 482.19640625 304.63140625 482.73265625 304.50390625 483.28515625 C303.75684609 486.12398485 302.82587261 488.88238827 301.87890625 491.66015625 C301.21890625 491.66015625 300.55890625 491.66015625 299.87890625 491.66015625 C299.75644531 492.211875 299.63398437 492.76359375 299.5078125 493.33203125 C298.79897014 495.9560688 297.84279369 498.39385155 296.81640625 500.91015625 C296.45417969 501.8021875 296.09195312 502.69421875 295.71875 503.61328125 C295.44160156 504.28875 295.16445313 504.96421875 294.87890625 505.66015625 C294.21890625 505.66015625 293.55890625 505.66015625 292.87890625 505.66015625 C291.39390625 510.61015625 291.39390625 510.61015625 289.87890625 515.66015625 C289.21890625 515.66015625 288.55890625 515.66015625 287.87890625 515.66015625 C287.87890625 516.98015625 287.87890625 518.30015625 287.87890625 519.66015625 C287.21890625 519.66015625 286.55890625 519.66015625 285.87890625 519.66015625 C285.75515625 520.56765625 285.63140625 521.47515625 285.50390625 522.41015625 C284.95780948 525.24985948 284.30626822 527.18606216 282.87890625 529.66015625 C282.21890625 529.66015625 281.55890625 529.66015625 280.87890625 529.66015625 C280.75515625 530.19640625 280.63140625 530.73265625 280.50390625 531.28515625 C279.75936533 534.11441174 278.80405639 536.88470584 277.87890625 539.66015625 C268.96890625 539.99015625 260.05890625 540.32015625 250.87890625 540.66015625 C251.20890625 541.65015625 251.53890625 542.64015625 251.87890625 543.66015625 C252.53890625 543.66015625 253.19890625 543.66015625 253.87890625 543.66015625 C256.87890625 550.28515625 256.87890625 550.28515625 256.87890625 553.66015625 C257.53890625 553.66015625 258.19890625 553.66015625 258.87890625 553.66015625 C258.87890625 554.65015625 258.87890625 555.64015625 258.87890625 556.66015625 C259.53890625 556.66015625 260.19890625 556.66015625 260.87890625 556.66015625 C262.11811927 559.63426749 263.17949029 562.51278443 263.87890625 565.66015625 C264.53890625 565.66015625 265.19890625 565.66015625 265.87890625 565.66015625 C268.87890625 572.28515625 268.87890625 572.28515625 268.87890625 575.66015625 C269.53890625 575.66015625 270.19890625 575.66015625 270.87890625 575.66015625 C270.87890625 576.32015625 270.87890625 576.98015625 270.87890625 577.66015625 C271.86890625 577.66015625 272.85890625 577.66015625 273.87890625 577.66015625 C273.87890625 576.01015625 273.87890625 574.36015625 273.87890625 572.66015625 C274.53890625 572.66015625 275.19890625 572.66015625 275.87890625 572.66015625 C275.87890625 571.34015625 275.87890625 570.02015625 275.87890625 568.66015625 C276.53890625 568.66015625 277.19890625 568.66015625 277.87890625 568.66015625 C278.00265625 567.93828125 278.12640625 567.21640625 278.25390625 566.47265625 C278.86939935 563.70293731 279.76334999 561.26312085 280.87890625 558.66015625 C281.53890625 558.66015625 282.19890625 558.66015625 282.87890625 558.66015625 C283.00265625 557.97953125 283.12640625 557.29890625 283.25390625 556.59765625 C283.96991502 553.23241505 284.9083575 549.960022 285.87890625 546.66015625 C286.53890625 546.66015625 287.19890625 546.66015625 287.87890625 546.66015625 C287.87890625 545.67015625 287.87890625 544.68015625 287.87890625 543.66015625 C288.53890625 543.66015625 289.19890625 543.66015625 289.87890625 543.66015625 C290.00265625 542.77328125 290.12640625 541.88640625 290.25390625 540.97265625 C290.82303361 537.95628123 291.64505061 535.45689571 292.87890625 532.66015625 C293.53890625 532.66015625 294.19890625 532.66015625 294.87890625 532.66015625 C295.00265625 531.93828125 295.12640625 531.21640625 295.25390625 530.47265625 C295.86939935 527.70293731 296.76334999 525.26312085 297.87890625 522.66015625 C298.53890625 522.66015625 299.19890625 522.66015625 299.87890625 522.66015625 C300.00265625 521.95890625 300.12640625 521.25765625 300.25390625 520.53515625 C300.9172897 517.48359238 301.8510258 514.60674687 302.87890625 511.66015625 C303.53890625 511.66015625 304.19890625 511.66015625 304.87890625 511.66015625 C305.00136719 511.1084375 305.12382813 510.55671875 305.25 509.98828125 C305.95884236 507.3642437 306.91501881 504.92646095 307.94140625 502.41015625 C308.30363281 501.518125 308.66585938 500.62609375 309.0390625 499.70703125 C309.31621094 499.0315625 309.59335937 498.35609375 309.87890625 497.66015625 C310.53890625 497.66015625 311.19890625 497.66015625 311.87890625 497.66015625 C311.87890625 496.34015625 311.87890625 495.02015625 311.87890625 493.66015625 C312.53890625 493.66015625 313.19890625 493.66015625 313.87890625 493.66015625 C314.21921875 492.17515625 314.21921875 492.17515625 314.56640625 490.66015625 C315.6434665 486.81239754 317.50934475 483.83064497 319.7578125 480.5546875 C320.92097893 478.58905782 321.4388373 476.89016859 321.87890625 474.66015625 C322.53890625 474.66015625 323.19890625 474.66015625 323.87890625 474.66015625 C324.00265625 473.93828125 324.12640625 473.21640625 324.25390625 472.47265625 C324.86939935 469.70293731 325.76334999 467.26312085 326.87890625 464.66015625 C327.53890625 464.66015625 328.19890625 464.66015625 328.87890625 464.66015625 C328.87890625 463.67015625 328.87890625 462.68015625 328.87890625 461.66015625 C329.53890625 461.66015625 330.19890625 461.66015625 330.87890625 461.66015625 C331.00265625 460.77328125 331.12640625 459.88640625 331.25390625 458.97265625 C331.82303361 455.95628123 332.64505061 453.45689571 333.87890625 450.66015625 C334.53890625 450.66015625 335.19890625 450.66015625 335.87890625 450.66015625 C335.87890625 449.67015625 335.87890625 448.68015625 335.87890625 447.66015625 C336.53890625 447.66015625 337.19890625 447.66015625 337.87890625 447.66015625 C337.92015625 446.85578125 337.96140625 446.05140625 338.00390625 445.22265625 C339.0459153 440.98019085 340.95381412 438.30271037 343.50390625 434.80859375 C344.84708595 432.70987547 345.43858845 431.09291212 345.87890625 428.66015625 C346.53890625 428.66015625 347.19890625 428.66015625 347.87890625 428.66015625 C347.87890625 427.67015625 347.87890625 426.68015625 347.87890625 425.66015625 C348.53890625 425.66015625 349.19890625 425.66015625 349.87890625 425.66015625 C350.20890625 423.35015625 350.53890625 421.04015625 350.87890625 418.66015625 C351.53890625 418.66015625 352.19890625 418.66015625 352.87890625 418.66015625 C353.14703125 417.97953125 353.41515625 417.29890625 353.69140625 416.59765625 C355.03943931 413.26304816 356.45426923 409.96272388 357.87890625 406.66015625 C358.53890625 406.66015625 359.19890625 406.66015625 359.87890625 406.66015625 C359.87890625 405.67015625 359.87890625 404.68015625 359.87890625 403.66015625 C360.53890625 403.66015625 361.19890625 403.66015625 361.87890625 403.66015625 C362.20890625 401.68015625 362.53890625 399.70015625 362.87890625 397.66015625 C363.53890625 397.66015625 364.19890625 397.66015625 364.87890625 397.66015625 C364.87890625 396.67015625 364.87890625 395.68015625 364.87890625 394.66015625 C365.53890625 394.66015625 366.19890625 394.66015625 366.87890625 394.66015625 C366.92015625 393.85578125 366.96140625 393.05140625 367.00390625 392.22265625 C368.0459153 387.98019085 369.95381412 385.30271037 372.50390625 381.80859375 C373.84708595 379.70987547 374.43858845 378.09291212 374.87890625 375.66015625 C375.53890625 375.66015625 376.19890625 375.66015625 376.87890625 375.66015625 C376.87890625 374.67015625 376.87890625 373.68015625 376.87890625 372.66015625 C377.53890625 372.66015625 378.19890625 372.66015625 378.87890625 372.66015625 C379.86890625 369.69015625 380.85890625 366.72015625 381.87890625 363.66015625 C382.53890625 363.66015625 383.19890625 363.66015625 383.87890625 363.66015625 C383.87890625 362.67015625 383.87890625 361.68015625 383.87890625 360.66015625 C384.53890625 360.66015625 385.19890625 360.66015625 385.87890625 360.66015625 C386.20890625 359.01015625 386.53890625 357.36015625 386.87890625 355.66015625 C387.53890625 355.66015625 388.19890625 355.66015625 388.87890625 355.66015625 C388.87890625 354.34015625 388.87890625 353.02015625 388.87890625 351.66015625 C389.53890625 351.66015625 390.19890625 351.66015625 390.87890625 351.66015625 C391.20890625 350.01015625 391.53890625 348.36015625 391.87890625 346.66015625 C392.53890625 346.66015625 393.19890625 346.66015625 393.87890625 346.66015625 C393.87890625 345.67015625 393.87890625 344.68015625 393.87890625 343.66015625 C394.53890625 343.66015625 395.19890625 343.66015625 395.87890625 343.66015625 C396.20890625 341.68015625 396.53890625 339.70015625 396.87890625 337.66015625 C397.53890625 337.66015625 398.19890625 337.66015625 398.87890625 337.66015625 C398.87890625 336.67015625 398.87890625 335.68015625 398.87890625 334.66015625 C399.53890625 334.66015625 400.19890625 334.66015625 400.87890625 334.66015625 C400.87890625 333.67015625 400.87890625 332.68015625 400.87890625 331.66015625 C401.53890625 331.66015625 402.19890625 331.66015625 402.87890625 331.66015625 C403.20890625 330.01015625 403.53890625 328.36015625 403.87890625 326.66015625 C404.53890625 326.66015625 405.19890625 326.66015625 405.87890625 326.66015625 C405.87890625 325.34015625 405.87890625 324.02015625 405.87890625 322.66015625 C406.53890625 322.66015625 407.19890625 322.66015625 407.87890625 322.66015625 C408.95415819 320.00786813 409.97346776 317.37647171 410.87890625 314.66015625 C411.53890625 314.66015625 412.19890625 314.66015625 412.87890625 314.66015625 C413.86890625 311.69015625 414.85890625 308.72015625 415.87890625 305.66015625 C416.53890625 305.66015625 417.19890625 305.66015625 417.87890625 305.66015625 C418.18828125 304.87640625 418.49765625 304.09265625 418.81640625 303.28515625 C419.87890625 300.66015625 419.87890625 300.66015625 420.87890625 298.66015625 C421.53890625 298.66015625 422.19890625 298.66015625 422.87890625 298.66015625 C422.87890625 297.67015625 422.87890625 296.68015625 422.87890625 295.66015625 C423.53890625 295.66015625 424.19890625 295.66015625 424.87890625 295.66015625 C425.18828125 294.87640625 425.49765625 294.09265625 425.81640625 293.28515625 C426.87890625 290.66015625 426.87890625 290.66015625 427.87890625 288.66015625 C428.53890625 288.66015625 429.19890625 288.66015625 429.87890625 288.66015625 C430.18828125 287.87640625 430.49765625 287.09265625 430.81640625 286.28515625 C431.87890625 283.66015625 431.87890625 283.66015625 432.87890625 281.66015625 C433.53890625 281.66015625 434.19890625 281.66015625 434.87890625 281.66015625 C434.87890625 280.67015625 434.87890625 279.68015625 434.87890625 278.66015625 C435.53890625 278.66015625 436.19890625 278.66015625 436.87890625 278.66015625 C437.20890625 277.34015625 437.53890625 276.02015625 437.87890625 274.66015625 C438.53890625 274.66015625 439.19890625 274.66015625 439.87890625 274.66015625 C440.53890625 273.01015625 441.19890625 271.36015625 441.87890625 269.66015625 C442.53890625 269.66015625 443.19890625 269.66015625 443.87890625 269.66015625 C445.08518633 267.32801477 446.04438005 265.16373486 446.87890625 262.66015625 C448.94140625 261.97265625 448.94140625 261.97265625 450.87890625 261.66015625 C451.20890625 260.34015625 451.53890625 259.02015625 451.87890625 257.66015625 C452.53890625 257.66015625 453.19890625 257.66015625 453.87890625 257.66015625 C454.10578125 257.12390625 454.33265625 256.58765625 454.56640625 256.03515625 C456.33460714 252.83555464 458.41560828 250.36978402 460.87890625 247.66015625 C461.53890625 247.66015625 462.19890625 247.66015625 462.87890625 247.66015625 C462.87890625 247.00015625 462.87890625 246.34015625 462.87890625 245.66015625 C468.35509673 240.66015625 468.35509673 240.66015625 470.87890625 240.66015625 C470.87890625 240.00015625 470.87890625 239.34015625 470.87890625 238.66015625 C472.85890625 238.16515625 472.85890625 238.16515625 474.87890625 237.66015625 C474.87890625 237.00015625 474.87890625 236.34015625 474.87890625 235.66015625 C475.53890625 235.66015625 476.19890625 235.66015625 476.87890625 235.66015625 C476.87890625 235.00015625 476.87890625 234.34015625 476.87890625 233.66015625 C483.14993243 230.29435124 488.60287532 230.26875185 495.62890625 230.41015625 C497.18931641 230.41789062 497.18931641 230.41789062 498.78125 230.42578125 C506.41272217 230.50476156 506.41272217 230.50476156 509.87890625 231.66015625 C510.20890625 231.33015625 510.53890625 231.00015625 510.87890625 230.66015625 C512.58662983 230.57301794 514.29789274 230.55315618 516.0078125 230.5625 C517.55952148 230.56733398 517.55952148 230.56733398 519.14257812 230.57226562 C520.23119141 230.58064453 521.31980469 230.58902344 522.44140625 230.59765625 C524.08012695 230.60442383 524.08012695 230.60442383 525.75195312 230.61132812 C528.4609912 230.62315799 531.16992224 230.63964082 533.87890625 230.66015625 C533.87890625 231.32015625 533.87890625 231.98015625 533.87890625 232.66015625 C535.52890625 232.99015625 537.17890625 233.32015625 538.87890625 233.66015625 C538.87890625 234.32015625 538.87890625 234.98015625 538.87890625 235.66015625 C539.53890625 235.66015625 540.19890625 235.66015625 540.87890625 235.66015625 C540.87890625 236.32015625 540.87890625 236.98015625 540.87890625 237.66015625 C541.86890625 237.99015625 542.85890625 238.32015625 543.87890625 238.66015625 C543.87890625 239.32015625 543.87890625 239.98015625 543.87890625 240.66015625 C544.53890625 240.66015625 545.19890625 240.66015625 545.87890625 240.66015625 C545.87890625 241.32015625 545.87890625 241.98015625 545.87890625 242.66015625 C546.53890625 242.66015625 547.19890625 242.66015625 547.87890625 242.66015625 C547.87890625 243.65015625 547.87890625 244.64015625 547.87890625 245.66015625 C548.53890625 245.66015625 549.19890625 245.66015625 549.87890625 245.66015625 C550.20890625 246.98015625 550.53890625 248.30015625 550.87890625 249.66015625 C551.53890625 249.66015625 552.19890625 249.66015625 552.87890625 249.66015625 C552.87890625 250.65015625 552.87890625 251.64015625 552.87890625 252.66015625 C553.53890625 252.66015625 554.19890625 252.66015625 554.87890625 252.66015625 C555.20890625 254.31015625 555.53890625 255.96015625 555.87890625 257.66015625 C556.53890625 257.66015625 557.19890625 257.66015625 557.87890625 257.66015625 C559.1289833 261.5177674 559.02308882 265.37424082 559.01171875 269.3828125 C559.01267548 270.12470322 559.0136322 270.86659393 559.01461792 271.63096619 C559.01529685 273.19514043 559.01346263 274.75931753 559.00927734 276.32348633 C559.0039174 278.71767491 559.00923593 281.11167655 559.015625 283.50585938 C559.01496432 285.02734416 559.01368336 286.54882884 559.01171875 288.0703125 C559.01374298 288.78598892 559.01576721 289.50166534 559.01785278 290.23902893 C559.00329552 293.3219835 558.86176658 295.71157527 557.87890625 298.66015625 C557.21890625 298.66015625 556.55890625 298.66015625 555.87890625 298.66015625 C555.54890625 300.97015625 555.21890625 303.28015625 554.87890625 305.66015625 C554.21890625 305.66015625 553.55890625 305.66015625 552.87890625 305.66015625 C552.87890625 306.65015625 552.87890625 307.64015625 552.87890625 308.66015625 C552.21890625 308.66015625 551.55890625 308.66015625 550.87890625 308.66015625 C550.54890625 310.97015625 550.21890625 313.28015625 549.87890625 315.66015625 C549.21890625 315.66015625 548.55890625 315.66015625 547.87890625 315.66015625 C547.87890625 316.98015625 547.87890625 318.30015625 547.87890625 319.66015625 C547.21890625 319.66015625 546.55890625 319.66015625 545.87890625 319.66015625 C545.87890625 320.65015625 545.87890625 321.64015625 545.87890625 322.66015625 C545.21890625 322.66015625 544.55890625 322.66015625 543.87890625 322.66015625 C543.54890625 324.31015625 543.21890625 325.96015625 542.87890625 327.66015625 C542.21890625 327.66015625 541.55890625 327.66015625 540.87890625 327.66015625 C540.87890625 328.98015625 540.87890625 330.30015625 540.87890625 331.66015625 C540.21890625 331.66015625 539.55890625 331.66015625 538.87890625 331.66015625 C538.75515625 332.56765625 538.63140625 333.47515625 538.50390625 334.41015625 C537.95780948 337.24985948 537.30626822 339.18606216 535.87890625 341.66015625 C535.21890625 341.66015625 534.55890625 341.66015625 533.87890625 341.66015625 C533.87890625 342.65015625 533.87890625 343.64015625 533.87890625 344.66015625 C533.21890625 344.66015625 532.55890625 344.66015625 531.87890625 344.66015625 C531.54890625 346.64015625 531.21890625 348.62015625 530.87890625 350.66015625 C530.21890625 350.66015625 529.55890625 350.66015625 528.87890625 350.66015625 C528.75515625 351.38203125 528.63140625 352.10390625 528.50390625 352.84765625 C527.88841315 355.61737519 526.99446251 358.05719165 525.87890625 360.66015625 C525.21890625 360.66015625 524.55890625 360.66015625 523.87890625 360.66015625 C523.87890625 361.65015625 523.87890625 362.64015625 523.87890625 363.66015625 C523.21890625 363.66015625 522.55890625 363.66015625 521.87890625 363.66015625 C521.87890625 364.98015625 521.87890625 366.30015625 521.87890625 367.66015625 C521.21890625 367.66015625 520.55890625 367.66015625 519.87890625 367.66015625 C519.54890625 369.31015625 519.21890625 370.96015625 518.87890625 372.66015625 C518.21890625 372.66015625 517.55890625 372.66015625 516.87890625 372.66015625 C516.87890625 373.65015625 516.87890625 374.64015625 516.87890625 375.66015625 C516.21890625 375.66015625 515.55890625 375.66015625 514.87890625 375.66015625 C514.54890625 377.97015625 514.21890625 380.28015625 513.87890625 382.66015625 C513.21890625 382.66015625 512.55890625 382.66015625 511.87890625 382.66015625 C511.87890625 383.65015625 511.87890625 384.64015625 511.87890625 385.66015625 C511.21890625 385.66015625 510.55890625 385.66015625 509.87890625 385.66015625 C509.54890625 387.64015625 509.21890625 389.62015625 508.87890625 391.66015625 C508.21890625 391.66015625 507.55890625 391.66015625 506.87890625 391.66015625 C506.87890625 392.65015625 506.87890625 393.64015625 506.87890625 394.66015625 C506.21890625 394.66015625 505.55890625 394.66015625 504.87890625 394.66015625 C504.87890625 395.65015625 504.87890625 396.64015625 504.87890625 397.66015625 C504.21890625 397.66015625 503.55890625 397.66015625 502.87890625 397.66015625 C502.54890625 399.97015625 502.21890625 402.28015625 501.87890625 404.66015625 C501.21890625 404.66015625 500.55890625 404.66015625 499.87890625 404.66015625 C499.61078125 405.34078125 499.34265625 406.02140625 499.06640625 406.72265625 C497.71837319 410.05726434 496.30354327 413.35758862 494.87890625 416.66015625 C494.21890625 416.66015625 493.55890625 416.66015625 492.87890625 416.66015625 C492.75515625 417.21703125 492.63140625 417.77390625 492.50390625 418.34765625 C491.8191377 420.88129989 490.88756862 423.23936657 489.87890625 425.66015625 C489.21890625 425.66015625 488.55890625 425.66015625 487.87890625 425.66015625 C487.87890625 426.65015625 487.87890625 427.64015625 487.87890625 428.66015625 C487.21890625 428.66015625 486.55890625 428.66015625 485.87890625 428.66015625 C485.75515625 429.58828125 485.63140625 430.51640625 485.50390625 431.47265625 C484.87890625 434.66015625 484.87890625 434.66015625 482.87890625 437.66015625 C482.21890625 437.66015625 481.55890625 437.66015625 480.87890625 437.66015625 C480.75515625 438.38203125 480.63140625 439.10390625 480.50390625 439.84765625 C479.88841315 442.61737519 478.99446251 445.05719165 477.87890625 447.66015625 C477.21890625 447.66015625 476.55890625 447.66015625 475.87890625 447.66015625 C474.80365431 450.31244437 473.78434474 452.94384079 472.87890625 455.66015625 C472.21890625 455.66015625 471.55890625 455.66015625 470.87890625 455.66015625 C470.87890625 456.98015625 470.87890625 458.30015625 470.87890625 459.66015625 C470.21890625 459.66015625 469.55890625 459.66015625 468.87890625 459.66015625 C468.87890625 460.65015625 468.87890625 461.64015625 468.87890625 462.66015625 C468.21890625 462.66015625 467.55890625 462.66015625 466.87890625 462.66015625 C465.88890625 465.63015625 464.89890625 468.60015625 463.87890625 471.66015625 C463.21890625 471.66015625 462.55890625 471.66015625 461.87890625 471.66015625 C461.83765625 472.46453125 461.79640625 473.26890625 461.75390625 474.09765625 C460.7118972 478.34012165 458.80399838 481.01760213 456.25390625 484.51171875 C454.91072655 486.61043703 454.31922405 488.22740038 453.87890625 490.66015625 C453.21890625 490.66015625 452.55890625 490.66015625 451.87890625 490.66015625 C450.80365431 493.31244437 449.78434474 495.94384079 448.87890625 498.66015625 C448.21890625 498.66015625 447.55890625 498.66015625 446.87890625 498.66015625 C446.87890625 499.98015625 446.87890625 501.30015625 446.87890625 502.66015625 C446.21890625 502.66015625 445.55890625 502.66015625 444.87890625 502.66015625 C444.54890625 504.31015625 444.21890625 505.96015625 443.87890625 507.66015625 C443.21890625 507.66015625 442.55890625 507.66015625 441.87890625 507.66015625 C441.87890625 508.65015625 441.87890625 509.64015625 441.87890625 510.66015625 C441.21890625 510.66015625 440.55890625 510.66015625 439.87890625 510.66015625 C439.87890625 511.98015625 439.87890625 513.30015625 439.87890625 514.66015625 C439.21890625 514.66015625 438.55890625 514.66015625 437.87890625 514.66015625 C437.54890625 516.64015625 437.21890625 518.62015625 436.87890625 520.66015625 C436.21890625 520.66015625 435.55890625 520.66015625 434.87890625 520.66015625 C433.88890625 523.63015625 432.89890625 526.60015625 431.87890625 529.66015625 C431.21890625 529.66015625 430.55890625 529.66015625 429.87890625 529.66015625 C429.87890625 530.65015625 429.87890625 531.64015625 429.87890625 532.66015625 C429.21890625 532.66015625 428.55890625 532.66015625 427.87890625 532.66015625 C426.88890625 535.63015625 425.89890625 538.60015625 424.87890625 541.66015625 C424.21890625 541.66015625 423.55890625 541.66015625 422.87890625 541.66015625 C422.87890625 542.65015625 422.87890625 543.64015625 422.87890625 544.66015625 C422.21890625 544.66015625 421.55890625 544.66015625 420.87890625 544.66015625 C420.75515625 545.58828125 420.63140625 546.51640625 420.50390625 547.47265625 C419.87890625 550.66015625 419.87890625 550.66015625 417.87890625 553.66015625 C417.21890625 553.66015625 416.55890625 553.66015625 415.87890625 553.66015625 C415.75515625 554.21703125 415.63140625 554.77390625 415.50390625 555.34765625 C414.8191377 557.88129989 413.88756862 560.23936657 412.87890625 562.66015625 C412.21890625 562.66015625 411.55890625 562.66015625 410.87890625 562.66015625 C410.87890625 563.65015625 410.87890625 564.64015625 410.87890625 565.66015625 C410.21890625 565.66015625 409.55890625 565.66015625 408.87890625 565.66015625 C408.77578125 566.58828125 408.67265625 567.51640625 408.56640625 568.47265625 C407.81802395 571.94242872 407.28094777 572.32351685 404.87890625 574.66015625 C403.81902333 576.45611456 403.81902333 576.45611456 402.94140625 578.41015625 C401.08323177 582.27544286 399.04452083 585.9576539 396.87890625 589.66015625 C396.34265625 590.62953125 395.80640625 591.59890625 395.25390625 592.59765625 C394.80015625 593.27828125 394.34640625 593.95890625 393.87890625 594.66015625 C393.21890625 594.66015625 392.55890625 594.66015625 391.87890625 594.66015625 C391.77578125 595.58828125 391.67265625 596.51640625 391.56640625 597.47265625 C390.84646296 600.81057515 390.33437187 601.51162383 387.87890625 603.66015625 C387.54890625 604.65015625 387.21890625 605.64015625 386.87890625 606.66015625 C386.21890625 606.66015625 385.55890625 606.66015625 384.87890625 606.66015625 C384.54890625 608.31015625 384.21890625 609.96015625 383.87890625 611.66015625 C383.21890625 611.66015625 382.55890625 611.66015625 381.87890625 611.66015625 C381.87890625 612.65015625 381.87890625 613.64015625 381.87890625 614.66015625 C381.21890625 614.66015625 380.55890625 614.66015625 379.87890625 614.66015625 C379.54890625 616.64015625 379.21890625 618.62015625 378.87890625 620.66015625 C378.21890625 620.66015625 377.55890625 620.66015625 376.87890625 620.66015625 C376.87890625 621.65015625 376.87890625 622.64015625 376.87890625 623.66015625 C376.21890625 623.66015625 375.55890625 623.66015625 374.87890625 623.66015625 C374.61078125 624.36914062 374.34265625 625.078125 374.06640625 625.80859375 C372.8392564 628.75536806 371.41890252 631.49006302 369.87890625 634.28515625 C369.10546875 635.69667969 369.10546875 635.69667969 368.31640625 637.13671875 C367.24300175 639.02101034 366.08181964 640.85578617 364.87890625 642.66015625 C364.21890625 642.66015625 363.55890625 642.66015625 362.87890625 642.66015625 C362.87890625 643.65015625 362.87890625 644.64015625 362.87890625 645.66015625 C362.21890625 645.66015625 361.55890625 645.66015625 360.87890625 645.66015625 C360.54890625 647.31015625 360.21890625 648.96015625 359.87890625 650.66015625 C359.21890625 650.66015625 358.55890625 650.66015625 357.87890625 650.66015625 C357.87890625 651.98015625 357.87890625 653.30015625 357.87890625 654.66015625 C357.21890625 654.99015625 356.55890625 655.32015625 355.87890625 655.66015625 C355.22677333 657.6847888 355.22677333 657.6847888 354.87890625 659.66015625 C354.21890625 659.66015625 353.55890625 659.66015625 352.87890625 659.66015625 C352.87890625 660.32015625 352.87890625 660.98015625 352.87890625 661.66015625 C352.21890625 661.66015625 351.55890625 661.66015625 350.87890625 661.66015625 C350.54890625 663.31015625 350.21890625 664.96015625 349.87890625 666.66015625 C349.21890625 666.66015625 348.55890625 666.66015625 347.87890625 666.66015625 C347.87890625 667.65015625 347.87890625 668.64015625 347.87890625 669.66015625 C347.21890625 669.66015625 346.55890625 669.66015625 345.87890625 669.66015625 C345.56953125 670.44390625 345.26015625 671.22765625 344.94140625 672.03515625 C343.87890625 674.66015625 343.87890625 674.66015625 342.87890625 676.66015625 C342.21890625 676.66015625 341.55890625 676.66015625 340.87890625 676.66015625 C340.87890625 677.65015625 340.87890625 678.64015625 340.87890625 679.66015625 C340.21890625 679.66015625 339.55890625 679.66015625 338.87890625 679.66015625 C338.61078125 680.54703125 338.34265625 681.43390625 338.06640625 682.34765625 C335.35017062 689.92452407 335.35017062 689.92452407 331.87890625 691.66015625 C330.87150879 693.32236206 329.8736767 694.99036299 328.87890625 696.66015625 C327.3403979 698.72626824 325.77055206 700.76387281 324.18359375 702.79296875 C322.69708233 704.73202436 322.69708233 704.73202436 321.87890625 707.66015625 C320.44140625 709.34765625 320.44140625 709.34765625 318.87890625 710.66015625 C318.21890625 710.66015625 317.55890625 710.66015625 316.87890625 710.66015625 C316.87890625 711.98015625 316.87890625 713.30015625 316.87890625 714.66015625 C315.50390625 716.41015625 315.50390625 716.41015625 313.87890625 717.66015625 C313.21890625 717.66015625 312.55890625 717.66015625 311.87890625 717.66015625 C311.21890625 719.31015625 310.55890625 720.96015625 309.87890625 722.66015625 C309.21890625 722.66015625 308.55890625 722.66015625 307.87890625 722.66015625 C307.54890625 723.98015625 307.21890625 725.30015625 306.87890625 726.66015625 C306.21890625 726.66015625 305.55890625 726.66015625 304.87890625 726.66015625 C304.87890625 727.32015625 304.87890625 727.98015625 304.87890625 728.66015625 C296.28177857 728.91574967 287.68625301 729.11082249 279.08625793 729.23009014 C275.0921046 729.2873546 271.10056107 729.36491579 267.10791016 729.48999023 C263.24972218 729.61008716 259.39403219 729.67539174 255.53411865 729.70380592 C254.06663676 729.72403378 252.59928237 729.76354292 251.13287354 729.82318687 C239.67448125 730.27042929 239.67448125 730.27042929 235.14501953 726.20840454 C229.87890625 719.1496776 229.87890625 719.1496776 229.87890625 715.66015625 C228.88890625 715.33015625 227.89890625 715.00015625 226.87890625 714.66015625 C225.69140625 711.59765625 225.69140625 711.59765625 224.87890625 708.66015625 C224.21890625 708.66015625 223.55890625 708.66015625 222.87890625 708.66015625 C222.87890625 707.67015625 222.87890625 706.68015625 222.87890625 705.66015625 C222.21890625 705.66015625 221.55890625 705.66015625 220.87890625 705.66015625 C219.25390625 704.41015625 219.25390625 704.41015625 217.87890625 702.66015625 C217.87890625 701.34015625 217.87890625 700.02015625 217.87890625 698.66015625 C217.21890625 698.66015625 216.55890625 698.66015625 215.87890625 698.66015625 C212.87890625 694.27554087 212.87890625 694.27554087 212.87890625 691.66015625 C212.21890625 691.66015625 211.55890625 691.66015625 210.87890625 691.66015625 C210.87890625 690.67015625 210.87890625 689.68015625 210.87890625 688.66015625 C210.21890625 688.66015625 209.55890625 688.66015625 208.87890625 688.66015625 C207.37109375 686.54296875 207.37109375 686.54296875 205.75390625 683.78515625 C205.21507812 682.88023437 204.67625 681.9753125 204.12109375 681.04296875 C202.87890625 678.66015625 202.87890625 678.66015625 202.87890625 676.66015625 C202.21890625 676.66015625 201.55890625 676.66015625 200.87890625 676.66015625 C199.58984375 674.98046875 199.58984375 674.98046875 198.25390625 672.78515625 C197.80789063 672.06585937 197.361875 671.3465625 196.90234375 670.60546875 C195.87890625 668.66015625 195.87890625 668.66015625 195.87890625 666.66015625 C195.21890625 666.66015625 194.55890625 666.66015625 193.87890625 666.66015625 C193.87890625 665.67015625 193.87890625 664.68015625 193.87890625 663.66015625 C193.21890625 663.66015625 192.55890625 663.66015625 191.87890625 663.66015625 C188.87890625 657.91015625 188.87890625 657.91015625 188.87890625 655.66015625 C188.21890625 655.66015625 187.55890625 655.66015625 186.87890625 655.66015625 C186.54890625 654.01015625 186.21890625 652.36015625 185.87890625 650.66015625 C185.21890625 650.66015625 184.55890625 650.66015625 183.87890625 650.66015625 C183.87890625 649.67015625 183.87890625 648.68015625 183.87890625 647.66015625 C183.21890625 647.66015625 182.55890625 647.66015625 181.87890625 647.66015625 C181.37230469 646.70302734 181.37230469 646.70302734 180.85546875 645.7265625 C180.40945313 644.90027344 179.9634375 644.07398438 179.50390625 643.22265625 C179.06304687 642.39894531 178.6221875 641.57523438 178.16796875 640.7265625 C177.04472066 638.52549047 177.04472066 638.52549047 174.87890625 637.66015625 C174.02734375 635.59375 174.02734375 635.59375 173.25390625 633.09765625 C172.99351562 632.27136719 172.733125 631.44507813 172.46484375 630.59375 C172.17480469 629.63662109 172.17480469 629.63662109 171.87890625 628.66015625 C171.21890625 628.66015625 170.55890625 628.66015625 169.87890625 628.66015625 C169.87890625 627.67015625 169.87890625 626.68015625 169.87890625 625.66015625 C169.21890625 625.33015625 168.55890625 625.00015625 167.87890625 624.66015625 C167.25390625 622.59765625 167.25390625 622.59765625 166.87890625 620.66015625 C166.21890625 620.66015625 165.55890625 620.66015625 164.87890625 620.66015625 C164.87890625 619.34015625 164.87890625 618.02015625 164.87890625 616.66015625 C164.21890625 616.66015625 163.55890625 616.66015625 162.87890625 616.66015625 C162.54890625 615.01015625 162.21890625 613.36015625 161.87890625 611.66015625 C161.21890625 611.66015625 160.55890625 611.66015625 159.87890625 611.66015625 C159.87890625 610.67015625 159.87890625 609.68015625 159.87890625 608.66015625 C159.21890625 608.66015625 158.55890625 608.66015625 157.87890625 608.66015625 C154.87890625 603.03515625 154.87890625 603.03515625 154.87890625 599.66015625 C154.21890625 599.66015625 153.55890625 599.66015625 152.87890625 599.66015625 C152.87890625 598.67015625 152.87890625 597.68015625 152.87890625 596.66015625 C152.21890625 596.66015625 151.55890625 596.66015625 150.87890625 596.66015625 C150.54890625 595.01015625 150.21890625 593.36015625 149.87890625 591.66015625 C149.21890625 591.66015625 148.55890625 591.66015625 147.87890625 591.66015625 C147.87890625 590.34015625 147.87890625 589.02015625 147.87890625 587.66015625 C147.21890625 587.66015625 146.55890625 587.66015625 145.87890625 587.66015625 C143.8372114 584.75466743 142.87890625 583.25873579 142.87890625 579.66015625 C142.21890625 579.66015625 141.55890625 579.66015625 140.87890625 579.66015625 C140.87890625 578.34015625 140.87890625 577.02015625 140.87890625 575.66015625 C140.21890625 575.66015625 139.55890625 575.66015625 138.87890625 575.66015625 C138.54890625 574.01015625 138.21890625 572.36015625 137.87890625 570.66015625 C137.21890625 570.66015625 136.55890625 570.66015625 135.87890625 570.66015625 C135.87890625 569.67015625 135.87890625 568.68015625 135.87890625 567.66015625 C135.21890625 567.66015625 134.55890625 567.66015625 133.87890625 567.66015625 C133.54890625 565.68015625 133.21890625 563.70015625 132.87890625 561.66015625 C132.21890625 561.66015625 131.55890625 561.66015625 130.87890625 561.66015625 C130.87890625 560.67015625 130.87890625 559.68015625 130.87890625 558.66015625 C130.21890625 558.66015625 129.55890625 558.66015625 128.87890625 558.66015625 C128.04071467 557.03765684 127.20849465 555.41207128 126.37890625 553.78515625 C125.91484375 552.88023437 125.45078125 551.9753125 124.97265625 551.04296875 C123.87890625 548.66015625 123.87890625 548.66015625 123.87890625 546.66015625 C123.21890625 546.66015625 122.55890625 546.66015625 121.87890625 546.66015625 C118.87890625 540.03515625 118.87890625 540.03515625 118.87890625 536.66015625 C118.21890625 536.66015625 117.55890625 536.66015625 116.87890625 536.66015625 C116.87890625 535.67015625 116.87890625 534.68015625 116.87890625 533.66015625 C116.21890625 533.33015625 115.55890625 533.00015625 114.87890625 532.66015625 C114.25390625 530.09765625 114.25390625 530.09765625 113.87890625 527.66015625 C113.21890625 527.66015625 112.55890625 527.66015625 111.87890625 527.66015625 C111.87890625 526.67015625 111.87890625 525.68015625 111.87890625 524.66015625 C111.21890625 524.66015625 110.55890625 524.66015625 109.87890625 524.66015625 C106.87890625 518.03515625 106.87890625 518.03515625 106.87890625 514.66015625 C106.21890625 514.66015625 105.55890625 514.66015625 104.87890625 514.66015625 C101.87890625 509.03515625 101.87890625 509.03515625 101.87890625 505.66015625 C101.21890625 505.66015625 100.55890625 505.66015625 99.87890625 505.66015625 C99.87890625 504.67015625 99.87890625 503.68015625 99.87890625 502.66015625 C99.21890625 502.66015625 98.55890625 502.66015625 97.87890625 502.66015625 C94.87890625 496.03515625 94.87890625 496.03515625 94.87890625 492.66015625 C94.21890625 492.66015625 93.55890625 492.66015625 92.87890625 492.66015625 C91.88890625 489.69015625 90.89890625 486.72015625 89.87890625 483.66015625 C89.21890625 483.66015625 88.55890625 483.66015625 87.87890625 483.66015625 C87.87890625 482.34015625 87.87890625 481.02015625 87.87890625 479.66015625 C87.21890625 479.66015625 86.55890625 479.66015625 85.87890625 479.66015625 C85.54890625 477.68015625 85.21890625 475.70015625 84.87890625 473.66015625 C84.21890625 473.66015625 83.55890625 473.66015625 82.87890625 473.66015625 C82.87890625 472.34015625 82.87890625 471.02015625 82.87890625 469.66015625 C82.21890625 469.66015625 81.55890625 469.66015625 80.87890625 469.66015625 C77.87890625 463.03515625 77.87890625 463.03515625 77.87890625 459.66015625 C77.21890625 459.66015625 76.55890625 459.66015625 75.87890625 459.66015625 C72.87890625 453.03515625 72.87890625 453.03515625 72.87890625 449.66015625 C72.21890625 449.66015625 71.55890625 449.66015625 70.87890625 449.66015625 C70.87890625 448.34015625 70.87890625 447.02015625 70.87890625 445.66015625 C70.21890625 445.66015625 69.55890625 445.66015625 68.87890625 445.66015625 C65.87890625 439.03515625 65.87890625 439.03515625 65.87890625 435.66015625 C65.21890625 435.66015625 64.55890625 435.66015625 63.87890625 435.66015625 C63.87890625 434.67015625 63.87890625 433.68015625 63.87890625 432.66015625 C63.21890625 432.33015625 62.55890625 432.00015625 61.87890625 431.66015625 C61.25390625 428.59765625 61.25390625 428.59765625 60.87890625 425.66015625 C60.21890625 425.66015625 59.55890625 425.66015625 58.87890625 425.66015625 C54.47116138 416.25013347 54.47116138 416.25013347 53.87890625 411.66015625 C53.21890625 411.66015625 52.55890625 411.66015625 51.87890625 411.66015625 C51.87890625 410.67015625 51.87890625 409.68015625 51.87890625 408.66015625 C51.21890625 408.33015625 50.55890625 408.00015625 49.87890625 407.66015625 C49.25390625 404.59765625 49.25390625 404.59765625 48.87890625 401.66015625 C48.21890625 401.66015625 47.55890625 401.66015625 46.87890625 401.66015625 C46.87890625 400.34015625 46.87890625 399.02015625 46.87890625 397.66015625 C46.21890625 397.66015625 45.55890625 397.66015625 44.87890625 397.66015625 C41.87890625 391.03515625 41.87890625 391.03515625 41.87890625 387.66015625 C41.21890625 387.66015625 40.55890625 387.66015625 39.87890625 387.66015625 C39.38390625 384.19515625 39.38390625 384.19515625 38.87890625 380.66015625 C38.21890625 380.66015625 37.55890625 380.66015625 36.87890625 380.66015625 C36.87890625 379.67015625 36.87890625 378.68015625 36.87890625 377.66015625 C36.21890625 377.66015625 35.55890625 377.66015625 34.87890625 377.66015625 C34.87890625 376.34015625 34.87890625 375.02015625 34.87890625 373.66015625 C34.21890625 373.66015625 33.55890625 373.66015625 32.87890625 373.66015625 C32.37275327 372.39176099 31.87421526 371.12032523 31.37890625 369.84765625 C31.10046875 369.13996094 30.82203125 368.43226563 30.53515625 367.703125 C29.87890625 365.66015625 29.87890625 365.66015625 29.87890625 362.66015625 C29.21890625 362.66015625 28.55890625 362.66015625 27.87890625 362.66015625 C27.38390625 359.19515625 27.38390625 359.19515625 26.87890625 355.66015625 C26.21890625 355.66015625 25.55890625 355.66015625 24.87890625 355.66015625 C24.87890625 354.34015625 24.87890625 353.02015625 24.87890625 351.66015625 C24.21890625 351.66015625 23.55890625 351.66015625 22.87890625 351.66015625 C22.87890625 350.67015625 22.87890625 349.68015625 22.87890625 348.66015625 C22.21890625 348.66015625 21.55890625 348.66015625 20.87890625 348.66015625 C20.38390625 345.19515625 20.38390625 345.19515625 19.87890625 341.66015625 C19.21890625 341.66015625 18.55890625 341.66015625 17.87890625 341.66015625 C17.87890625 340.34015625 17.87890625 339.02015625 17.87890625 337.66015625 C17.21890625 337.66015625 16.55890625 337.66015625 15.87890625 337.66015625 C14.60637189 334.01222441 13.55061431 330.46650195 12.87890625 326.66015625 C12.21890625 326.66015625 11.55890625 326.66015625 10.87890625 326.66015625 C10.87890625 325.34015625 10.87890625 324.02015625 10.87890625 322.66015625 C10.21890625 322.66015625 9.55890625 322.66015625 8.87890625 322.66015625 C8.38390625 319.19515625 8.38390625 319.19515625 7.87890625 315.66015625 C7.21890625 315.66015625 6.55890625 315.66015625 5.87890625 315.66015625 C5.87890625 314.67015625 5.87890625 313.68015625 5.87890625 312.66015625 C5.21890625 312.66015625 4.55890625 312.66015625 3.87890625 312.66015625 C3.37057034 311.41352294 2.8725948 310.16266238 2.37890625 308.91015625 C1.96125 307.86601563 1.96125 307.86601563 1.53515625 306.80078125 C0.87890625 304.66015625 0.87890625 304.66015625 0.87890625 300.66015625 C0.21890625 300.66015625 -0.44109375 300.66015625 -1.12109375 300.66015625 C-4.12109375 294.03515625 -4.12109375 294.03515625 -4.12109375 290.66015625 C-4.78109375 290.66015625 -5.44109375 290.66015625 -6.12109375 290.66015625 C-6.12109375 289.34015625 -6.12109375 288.02015625 -6.12109375 286.66015625 C-6.78109375 286.66015625 -7.44109375 286.66015625 -8.12109375 286.66015625 C-8.62942966 285.41352294 -9.1274052 284.16266238 -9.62109375 282.91015625 C-9.89953125 282.2140625 -10.17796875 281.51796875 -10.46484375 280.80078125 C-11.12109375 278.66015625 -11.12109375 278.66015625 -11.12109375 274.66015625 C-11.78109375 274.66015625 -12.44109375 274.66015625 -13.12109375 274.66015625 C-16.12109375 268.03515625 -16.12109375 268.03515625 -16.12109375 264.66015625 C-16.78109375 264.66015625 -17.44109375 264.66015625 -18.12109375 264.66015625 C-18.96095459 262.72547683 -19.79277402 260.78730496 -20.62109375 258.84765625 C-21.08515625 257.76871094 -21.54921875 256.68976563 -22.02734375 255.578125 C-23.12109375 252.66015625 -23.12109375 252.66015625 -23.12109375 249.66015625 C-23.78109375 249.66015625 -24.44109375 249.66015625 -25.12109375 249.66015625 C-25.12109375 248.01015625 -25.12109375 246.36015625 -25.12109375 244.66015625 C-22.15109375 243.67015625 -22.15109375 243.67015625 -19.12109375 242.66015625 C-19.12109375 242.00015625 -19.12109375 241.34015625 -19.12109375 240.66015625 C-18.13109375 240.66015625 -17.14109375 240.66015625 -16.12109375 240.66015625 C-16.12109375 240.00015625 -16.12109375 239.34015625 -16.12109375 238.66015625 C-11.73647837 235.66015625 -11.73647837 235.66015625 -9.12109375 235.66015625 C-9.12109375 235.00015625 -9.12109375 234.34015625 -9.12109375 233.66015625 C-12.75109375 233.66015625 -16.38109375 233.66015625 -20.12109375 233.66015625 C-20.12109375 234.32015625 -20.12109375 234.98015625 -20.12109375 235.66015625 C-21.11109375 235.66015625 -22.10109375 235.66015625 -23.12109375 235.66015625 C-23.12109375 236.32015625 -23.12109375 236.98015625 -23.12109375 237.66015625 C-28.87109375 240.66015625 -28.87109375 240.66015625 -31.12109375 240.66015625 C-31.12109375 241.32015625 -31.12109375 241.98015625 -31.12109375 242.66015625 C-32.11109375 242.66015625 -33.10109375 242.66015625 -34.12109375 242.66015625 C-34.12109375 243.32015625 -34.12109375 243.98015625 -34.12109375 244.66015625 C-35.44109375 244.99015625 -36.76109375 245.32015625 -38.12109375 245.66015625 C-37.79109375 247.97015625 -37.46109375 250.28015625 -37.12109375 252.66015625 C-36.46109375 252.66015625 -35.80109375 252.66015625 -35.12109375 252.66015625 C-35.12109375 253.98015625 -35.12109375 255.30015625 -35.12109375 256.66015625 C-34.46109375 256.66015625 -33.80109375 256.66015625 -33.12109375 256.66015625 C-32.91484375 257.58828125 -32.70859375 258.51640625 -32.49609375 259.47265625 C-31.21478414 264.08913941 -28.78803881 268.00817023 -26.36328125 272.109375 C-25.12109375 274.66015625 -25.12109375 274.66015625 -25.12109375 278.66015625 C-24.46109375 278.66015625 -23.80109375 278.66015625 -23.12109375 278.66015625 C-23.12109375 279.98015625 -23.12109375 281.30015625 -23.12109375 282.66015625 C-22.46109375 282.66015625 -21.80109375 282.66015625 -21.12109375 282.66015625 C-20.61494077 283.92855151 -20.11640276 285.19998727 -19.62109375 286.47265625 C-19.34265625 287.18035156 -19.06421875 287.88804687 -18.77734375 288.6171875 C-18.12109375 290.66015625 -18.12109375 290.66015625 -18.12109375 293.66015625 C-17.46109375 293.66015625 -16.80109375 293.66015625 -16.12109375 293.66015625 C-15.62609375 297.12515625 -15.62609375 297.12515625 -15.12109375 300.66015625 C-14.46109375 300.66015625 -13.80109375 300.66015625 -13.12109375 300.66015625 C-11.35646692 303.7482532 -11.12109375 304.89327761 -11.12109375 308.66015625 C-10.46109375 308.66015625 -9.80109375 308.66015625 -9.12109375 308.66015625 C-8.62609375 312.12515625 -8.62609375 312.12515625 -8.12109375 315.66015625 C-7.46109375 315.66015625 -6.80109375 315.66015625 -6.12109375 315.66015625 C-6.12109375 316.98015625 -6.12109375 318.30015625 -6.12109375 319.66015625 C-5.46109375 319.66015625 -4.80109375 319.66015625 -4.12109375 319.66015625 C-3.62609375 323.12515625 -3.62609375 323.12515625 -3.12109375 326.66015625 C-2.46109375 326.66015625 -1.80109375 326.66015625 -1.12109375 326.66015625 C-1.12109375 327.65015625 -1.12109375 328.64015625 -1.12109375 329.66015625 C-0.46109375 329.66015625 0.19890625 329.66015625 0.87890625 329.66015625 C1.14703125 330.52640625 1.41515625 331.39265625 1.69140625 332.28515625 C2.80598958 335.69140625 2.80598958 335.69140625 4.50390625 338.84765625 C5.87890625 341.66015625 5.87890625 341.66015625 5.87890625 344.66015625 C6.53890625 344.66015625 7.19890625 344.66015625 7.87890625 344.66015625 C8.37390625 348.12515625 8.37390625 348.12515625 8.87890625 351.66015625 C9.53890625 351.66015625 10.19890625 351.66015625 10.87890625 351.66015625 C10.87890625 352.98015625 10.87890625 354.30015625 10.87890625 355.66015625 C11.53890625 355.66015625 12.19890625 355.66015625 12.87890625 355.66015625 C15.87890625 362.28515625 15.87890625 362.28515625 15.87890625 365.66015625 C16.53890625 365.66015625 17.19890625 365.66015625 17.87890625 365.66015625 C18.71876709 367.59483567 19.55058652 369.53300754 20.37890625 371.47265625 C20.84296875 372.55160156 21.30703125 373.63054687 21.78515625 374.7421875 C22.87890625 377.66015625 22.87890625 377.66015625 22.87890625 380.66015625 C23.53890625 380.66015625 24.19890625 380.66015625 24.87890625 380.66015625 C27.87890625 387.16015625 27.87890625 387.16015625 27.87890625 391.66015625 C28.53890625 391.66015625 29.19890625 391.66015625 29.87890625 391.66015625 C29.87890625 392.65015625 29.87890625 393.64015625 29.87890625 394.66015625 C30.53890625 394.66015625 31.19890625 394.66015625 31.87890625 394.66015625 C32.37390625 398.12515625 32.37390625 398.12515625 32.87890625 401.66015625 C33.53890625 401.66015625 34.19890625 401.66015625 34.87890625 401.66015625 C34.87890625 402.65015625 34.87890625 403.64015625 34.87890625 404.66015625 C35.53890625 404.66015625 36.19890625 404.66015625 36.87890625 404.66015625 C37.37390625 408.12515625 37.37390625 408.12515625 37.87890625 411.66015625 C38.53890625 411.66015625 39.19890625 411.66015625 39.87890625 411.66015625 C40.86890625 414.63015625 41.85890625 417.60015625 42.87890625 420.66015625 C43.20890625 420.66015625 43.53890625 420.66015625 43.87890625 420.66015625 C43.87890625 426.27015625 43.87890625 431.88015625 43.87890625 437.66015625 C46.51890625 437.99015625 49.15890625 438.32015625 51.87890625 438.66015625 C51.87890625 439.32015625 51.87890625 439.98015625 51.87890625 440.66015625 C52.53890625 440.66015625 53.19890625 440.66015625 53.87890625 440.66015625 C53.87890625 441.32015625 53.87890625 441.98015625 53.87890625 442.66015625 C54.53890625 442.66015625 55.19890625 442.66015625 55.87890625 442.66015625 C56.37390625 446.12515625 56.37390625 446.12515625 56.87890625 449.66015625 C57.53890625 449.66015625 58.19890625 449.66015625 58.87890625 449.66015625 C58.87890625 450.65015625 58.87890625 451.64015625 58.87890625 452.66015625 C59.53890625 452.66015625 60.19890625 452.66015625 60.87890625 452.66015625 C61.37390625 456.12515625 61.37390625 456.12515625 61.87890625 459.66015625 C62.53890625 459.66015625 63.19890625 459.66015625 63.87890625 459.66015625 C63.87890625 460.65015625 63.87890625 461.64015625 63.87890625 462.66015625 C64.53890625 462.66015625 65.19890625 462.66015625 65.87890625 462.66015625 C66.52800779 464.24215256 67.17305319 465.82581349 67.81640625 467.41015625 C68.35587891 468.73273438 68.35587891 468.73273438 68.90625 470.08203125 C69.73247201 472.27201729 70.37260568 474.37913896 70.87890625 476.66015625 C71.53890625 476.66015625 72.19890625 476.66015625 72.87890625 476.66015625 C75.87890625 482.28515625 75.87890625 482.28515625 75.87890625 485.66015625 C76.53890625 485.66015625 77.19890625 485.66015625 77.87890625 485.66015625 C78.20890625 487.64015625 78.53890625 489.62015625 78.87890625 491.66015625 C79.53890625 491.66015625 80.19890625 491.66015625 80.87890625 491.66015625 C80.87890625 492.98015625 80.87890625 494.30015625 80.87890625 495.66015625 C81.53890625 495.66015625 82.19890625 495.66015625 82.87890625 495.66015625 C82.87890625 496.65015625 82.87890625 497.64015625 82.87890625 498.66015625 C83.53890625 498.66015625 84.19890625 498.66015625 84.87890625 498.66015625 C87.87890625 505.28515625 87.87890625 505.28515625 87.87890625 508.66015625 C88.53890625 508.66015625 89.19890625 508.66015625 89.87890625 508.66015625 C90.20890625 510.64015625 90.53890625 512.62015625 90.87890625 514.66015625 C91.53890625 514.66015625 92.19890625 514.66015625 92.87890625 514.66015625 C92.87890625 515.65015625 92.87890625 516.64015625 92.87890625 517.66015625 C93.53890625 517.66015625 94.19890625 517.66015625 94.87890625 517.66015625 C97.87890625 524.28515625 97.87890625 524.28515625 97.87890625 527.66015625 C98.53890625 527.66015625 99.19890625 527.66015625 99.87890625 527.66015625 C99.87890625 528.65015625 99.87890625 529.64015625 99.87890625 530.66015625 C100.53890625 530.66015625 101.19890625 530.66015625 101.87890625 530.66015625 C102.20890625 532.64015625 102.53890625 534.62015625 102.87890625 536.66015625 C103.53890625 536.66015625 104.19890625 536.66015625 104.87890625 536.66015625 C104.87890625 537.65015625 104.87890625 538.64015625 104.87890625 539.66015625 C84.51736473 539.76730491 64.21714717 539.7867057 43.87890625 538.66015625 C43.87890625 538.00015625 43.87890625 537.34015625 43.87890625 536.66015625 C42.27208984 536.67755859 42.27208984 536.67755859 40.6328125 536.6953125 C39.23567882 536.70468924 37.83854326 536.71378956 36.44140625 536.72265625 C35.73435547 536.73103516 35.02730469 536.73941406 34.29882812 536.74804688 C32.49197066 536.75669213 30.68503022 536.71235636 28.87890625 536.66015625 C28.54890625 536.33015625 28.21890625 536.00015625 27.87890625 535.66015625 C25.88287419 535.45126917 23.88147684 535.29240148 21.87890625 535.16015625 C15.99001736 534.77126736 15.99001736 534.77126736 14.87890625 533.66015625 C12.02362018 533.25977325 9.18154138 532.90833355 6.31640625 532.59765625 C5.51009766 532.50677734 4.70378906 532.41589844 3.87304688 532.32226562 C1.87543248 532.09768176 -0.12277935 531.87842389 -2.12109375 531.66015625 C-2.12109375 531.00015625 -2.12109375 530.34015625 -2.12109375 529.66015625 C-3.66796875 529.72203125 -3.66796875 529.72203125 -5.24609375 529.78515625 C-9.04654513 529.66256104 -11.58101451 528.94061044 -15.12109375 527.66015625 C-17.11478406 527.29095434 -19.11388452 526.94690043 -21.12109375 526.66015625 C-21.12109375 526.00015625 -21.12109375 525.34015625 -21.12109375 524.66015625 C-22.77109375 524.66015625 -24.42109375 524.66015625 -26.12109375 524.66015625 C-26.12109375 524.00015625 -26.12109375 523.34015625 -26.12109375 522.66015625 C-26.80171875 522.53640625 -27.48234375 522.41265625 -28.18359375 522.28515625 C-31.54883495 521.56914748 -34.821228 520.630705 -38.12109375 519.66015625 C-38.12109375 519.00015625 -38.12109375 518.34015625 -38.12109375 517.66015625 C-38.67796875 517.53640625 -39.23484375 517.41265625 -39.80859375 517.28515625 C-42.34223739 516.6003877 -44.70030407 515.66881862 -47.12109375 514.66015625 C-47.12109375 514.00015625 -47.12109375 513.34015625 -47.12109375 512.66015625 C-47.78109375 512.66015625 -48.44109375 512.66015625 -49.12109375 512.66015625 C-49.12109375 512.00015625 -49.12109375 511.34015625 -49.12109375 510.66015625 C-49.73984375 510.35078125 -50.35859375 510.04140625 -50.99609375 509.72265625 C-52.37109375 509.03515625 -53.74609375 508.34765625 -55.12109375 507.66015625 C-55.12109375 507.00015625 -55.12109375 506.34015625 -55.12109375 505.66015625 C-55.78109375 505.66015625 -56.44109375 505.66015625 -57.12109375 505.66015625 C-57.12109375 505.00015625 -57.12109375 504.34015625 -57.12109375 503.66015625 C-57.78109375 503.66015625 -58.44109375 503.66015625 -59.12109375 503.66015625 C-59.12109375 502.67015625 -59.12109375 501.68015625 -59.12109375 500.66015625 C-59.78109375 500.66015625 -60.44109375 500.66015625 -61.12109375 500.66015625 C-64.25645543 493.70783252 -65.27014331 488.02640801 -65.24807739 480.34750366 C-65.24963738 479.51254069 -65.25119737 478.67757772 -65.25280464 477.81731284 C-65.2567935 475.01800181 -65.25363239 472.21874503 -65.25048828 469.41943359 C-65.25184389 467.4092048 -65.25362473 465.39897625 -65.25579834 463.38874817 C-65.26037173 457.90744151 -65.25857871 452.42615363 -65.25541925 446.94484663 C-65.25287373 441.14256206 -65.25524125 435.34027902 -65.25680542 429.53799438 C-65.25862972 419.72714963 -65.25622337 409.91631237 -65.25146484 400.10546875 C-65.24669957 390.16959132 -65.24657704 380.23372893 -65.25146484 370.29785156 C-65.29670262 275.80127086 -65.29670262 275.80127086 -64.70718145 235.71773577 C-64.67616379 233.60033279 -64.64649988 231.48291382 -64.61694717 229.36548996 C-64.56297111 225.57246547 -64.49939016 221.77964725 -64.43310547 217.98681641 C-64.40862398 216.36604376 -64.40862398 216.36604376 -64.38364792 214.71252823 C-64.28850486 209.91122707 -63.99337092 205.39248725 -63.12109375 200.66015625 C-62.98489896 198.44614613 -62.88868038 196.22945826 -62.82397461 194.01220703 C-62.78400864 192.71131134 -62.74404266 191.41041565 -62.7028656 190.07009888 C-62.66380163 188.66522461 -62.62482768 187.26034784 -62.5859375 185.85546875 C-62.54288289 184.40671747 -62.49946619 182.9579769 -62.45570374 181.50924683 C-62.34196016 177.71180976 -62.23311177 173.91424782 -62.12530518 170.11663818 C-62.01424502 166.23522291 -61.8985241 162.35394685 -61.78320312 158.47265625 C-61.55795538 150.86861773 -61.33788236 143.26444114 -61.12109375 135.66015625 C-60.79109375 135.66015625 -60.46109375 135.66015625 -60.12109375 135.66015625 C-60.08350952 134.72163818 -60.08350952 134.72163818 -60.04516602 133.76416016 C-59.92934102 130.93761006 -59.8065539 128.11140456 -59.68359375 125.28515625 C-59.62461914 123.80789062 -59.62461914 123.80789062 -59.56445312 122.30078125 C-59.52255859 121.35976562 -59.48066406 120.41875 -59.4375 119.44921875 C-59.38251343 118.14525146 -59.38251343 118.14525146 -59.32641602 116.81494141 C-59.12109375 114.66015625 -59.12109375 114.66015625 -58.12109375 112.66015625 C-57.89546794 110.2570653 -57.72069327 107.87328447 -57.5859375 105.46484375 C-57.52147179 104.40367844 -57.52147179 104.40367844 -57.45570374 103.32107544 C-57.31924598 101.05932519 -57.18885127 98.79727123 -57.05859375 96.53515625 C-56.96719567 95.00258033 -56.87540372 93.47002785 -56.78320312 91.9375 C-56.55792707 88.17864219 -56.33808835 84.41950086 -56.12109375 80.66015625 C-55.46109375 80.66015625 -54.80109375 80.66015625 -54.12109375 80.66015625 C-54.13269531 79.80550781 -54.14429688 78.95085937 -54.15625 78.0703125 C-54.16527344 76.96558594 -54.17429688 75.86085938 -54.18359375 74.72265625 C-54.19519531 73.62050781 -54.20679688 72.51835937 -54.21875 71.3828125 C-54.12109375 68.66015625 -54.12109375 68.66015625 -53.12109375 67.66015625 C-52.91333814 65.99811138 -52.7539112 64.32986134 -52.62109375 62.66015625 C-52.23220486 57.77126736 -52.23220486 57.77126736 -51.12109375 56.66015625 C-50.72071075 53.80487018 -50.36927105 50.96279138 -50.05859375 48.09765625 C-49.96771484 47.29134766 -49.87683594 46.48503906 -49.78320312 45.65429688 C-49.55861926 43.65668248 -49.33936139 41.65847065 -49.12109375 39.66015625 C-48.46109375 39.66015625 -47.80109375 39.66015625 -47.12109375 39.66015625 C-47.12109375 37.35015625 -47.12109375 35.04015625 -47.12109375 32.66015625 C-46.46109375 32.66015625 -45.80109375 32.66015625 -45.12109375 32.66015625 C-44.79109375 29.03015625 -44.46109375 25.40015625 -44.12109375 21.66015625 C-43.46109375 21.66015625 -42.80109375 21.66015625 -42.12109375 21.66015625 C-42.12109375 20.01015625 -42.12109375 18.36015625 -42.12109375 16.66015625 C-41.46109375 16.66015625 -40.80109375 16.66015625 -40.12109375 16.66015625 C-39.99734375 16.12390625 -39.87359375 15.58765625 -39.74609375 15.03515625 C-38.99903359 12.19632765 -38.06806011 9.43792423 -37.12109375 6.66015625 C-36.46109375 6.66015625 -35.80109375 6.66015625 -35.12109375 6.66015625 C-35.12109375 6.00015625 -35.12109375 5.34015625 -35.12109375 4.66015625 C-31.65955529 1.66015625 -31.65955529 1.66015625 -29.12109375 1.66015625 C-29.12109375 1.00015625 -29.12109375 0.34015625 -29.12109375 -0.33984375 C-20.89122927 -3.08313191 -8.10690797 -3.16130127 0 0 Z " fill="#FFFFFF" transform="translate(302.12109375,98.33984375)"/>
<path d="" fill="#FFFFFF" transform="translate(0,0)"/>
</svg>
